<svg width="45" height="71" viewBox="0 0 45 71" fill="none" xmlns="http://www.w3.org/2000/svg">
<path d="M12.5404 52.2408L16.0908 50.1106C18.545 48.1472 20.4975 45.6286 21.7873 42.7625L23.1306 39.7773C23.1669 39.6967 23.1856 39.6094 23.1856 39.521V32.6276C23.1856 32.5828 23.1824 32.5375 23.176 32.4931C22.213 25.752 23.1589 18.8042 25.9245 12.5815C26.0756 12.2416 26.4126 12.0226 26.7845 12.0226H29.1602H31.3307C33.0807 12.0226 34.7916 12.5406 36.2477 13.5113C36.2526 13.5146 36.2577 13.5175 36.2631 13.5199L39.8576 15.179C40.5452 15.4963 40.8388 16.316 40.5089 16.9977L39.5743 18.9292C36.8983 24.4597 35.5082 30.5239 35.5082 36.6678L35.8927 42.0509C36.1329 45.4137 35.8696 48.7934 35.1115 52.0784C34.3858 55.2232 33.1147 58.2164 31.3558 60.9224L30.5337 62.1872C29.6239 63.5869 28.4958 64.8318 27.1922 65.8747C23.6317 68.7231 19.2079 70.2749 14.6482 70.2749H12.3489C9.40719 70.2749 6.50592 69.59 3.87482 68.2744L1.1543 66.9142L3.76818 62.4332L7.87571 57.2054L12.2113 52.5085C12.3077 52.4041 12.4185 52.314 12.5404 52.2408Z" fill="#D2714C" stroke="#D2714C" stroke-width="0.746824"/>
<circle cx="32.5211" cy="11.6493" r="11.5758" fill="#D2714C"/>
<circle cx="32.5211" cy="11.6493" r="11.5758" fill="#D2714C"/>
<circle cx="32.5211" cy="11.6493" r="11.5758" fill="#D2714C"/>
<g filter="url(#filter0_f_0_3963)">
<circle cx="32.1479" cy="11.2756" r="7.46824" fill="#D2714C"/>
<circle cx="32.1479" cy="11.2756" r="7.46824" fill="#D2714C"/>
<circle cx="32.1479" cy="11.2756" r="7.46824" fill="#F9D1B2"/>
</g>
<defs>
<filter id="filter0_f_0_3963" x="21.6924" y="0.820076" width="20.9111" height="20.9111" filterUnits="userSpaceOnUse" color-interpolation-filters="sRGB">
<feFlood flood-opacity="0" result="BackgroundImageFix"/>
<feBlend mode="normal" in="SourceGraphic" in2="BackgroundImageFix" result="shape"/>
<feGaussianBlur stdDeviation="1.49365" result="effect1_foregroundBlur_0_3963"/>
</filter>
</defs>
</svg>
