<svg width="33" height="26" viewBox="0 0 33 26" fill="none" xmlns="http://www.w3.org/2000/svg">
<path d="M28.1789 7.95626C28.1789 11.3411 22.8478 13.5247 16.2716 13.5247C9.69535 13.5247 4.36426 11.3411 4.36426 7.95626C4.36426 4.57144 9.69535 0.44104 16.2716 0.44104C22.8478 0.44104 28.1789 4.57144 28.1789 7.95626Z" fill="#562B30"/>
<circle cx="21.7347" cy="5.11841" r="1.68103" fill="white"/>
<path d="M16.2179 3.89185L16.2179 16.2841C16.2179 20.331 19.4986 23.6116 23.5455 23.6116H24.5692C28.0507 23.6116 30.873 20.7893 30.873 17.3078V17.3078" stroke="#562B30" stroke-width="3.08189" stroke-linecap="round" stroke-linejoin="round"/>
<path d="M16.2177 3.89075V16.283C16.2177 20.3299 12.937 23.6105 8.89008 23.6105H7.86638C4.38484 23.6105 1.5625 20.7882 1.5625 17.3067V17.3067" stroke="#562B30" stroke-width="3.08189" stroke-linecap="round" stroke-linejoin="round"/>
</svg>
