<svg width="73" height="56" viewBox="0 0 73 56" fill="none" xmlns="http://www.w3.org/2000/svg">
<path d="M62.827 17.4909C62.827 25.0369 50.942 29.9049 36.2812 29.9049C21.6203 29.9049 9.73535 25.0369 9.73535 17.4909C9.73535 9.94489 21.6203 0.736694 36.2812 0.736694C50.942 0.736694 62.827 9.94489 62.827 17.4909Z" fill="#562B30"/>
<circle cx="48.4596" cy="11.1646" r="3.74765" fill="white"/>
<path d="M36.1612 8.42969L36.1612 36.0566C36.1612 45.0786 43.4751 52.3925 52.4971 52.3925H54.7793C62.541 52.3925 68.833 46.1004 68.833 38.3388V38.3388" stroke="#562B30" stroke-width="6.87069" stroke-linecap="round" stroke-linejoin="round"/>
<path d="M36.161 8.42725L36.161 36.0541C36.161 45.0762 28.8472 52.39 19.8251 52.39H17.5429C9.7813 52.39 3.48926 46.098 3.48926 38.3363V38.3363" stroke="#562B30" stroke-width="6.87069" stroke-linecap="round" stroke-linejoin="round"/>
</svg>
