<svg width="221" height="157" viewBox="0 0 221 157" fill="none" xmlns="http://www.w3.org/2000/svg">
<path d="M2.48303 74.181L11.0251 60.2716C14.1616 55.1643 20.1928 52.6093 26.0435 53.9093L26.6942 54.0539L34.2895 56.079C35.018 56.2733 35.7609 56.4085 36.5111 56.4835L46.9704 57.5293H58.5568H66.084C66.8577 57.5293 67.6301 57.4654 68.3933 57.3382L81.1502 55.2124L90.9637 52.7593C94.8587 51.7857 98.9613 53.2019 101.426 56.3708L103.682 59.5285C104.109 60.1256 104.488 60.7552 104.816 61.4114L106.64 65.0594L110.116 70.8518L112.837 74.9322C113.339 75.6856 113.768 76.4858 114.116 77.3217L115.109 79.7041C116.005 81.8545 116.184 84.2364 115.618 86.4964C115.427 87.263 115.152 88.0063 114.798 88.713L114.612 89.0861C113.936 90.4366 113.048 91.6695 111.98 92.7372L111.1 93.6171C110.446 94.2711 109.729 94.859 108.959 95.3721L108.465 95.7013C107.256 96.5073 105.929 97.1207 104.532 97.5199L102.585 98.076L100.003 98.9365C99.4111 99.1339 98.7909 99.2345 98.1667 99.2345C96.53 99.2345 95.2784 100.693 95.5273 102.311L95.6332 103C95.9825 105.27 97.6891 107.093 99.9312 107.591L100.705 107.763C101.185 107.869 101.674 107.923 102.165 107.923H105.482H108.958H111.043C111.968 107.923 112.89 107.832 113.797 107.65L116.793 107.051C117.746 106.861 118.677 106.572 119.571 106.189L122.282 105.027L126.917 102.71L130.579 100.269C131.609 99.5823 132.543 98.7626 133.359 97.8311L135.3 95.612C135.889 94.9393 136.412 94.2119 136.863 93.4397L139.604 88.7406C140.028 88.0148 140.385 87.2525 140.673 86.4628L142.037 82.7112C142.383 81.7586 142.626 80.7713 142.76 79.7666L143.717 72.5895L145.455 62.7425L147.037 52.194C147.141 51.5041 147.193 50.8074 147.193 50.1098V47.4275C147.193 46.06 147.392 44.6999 147.785 43.3901L148.931 39.5729L149.784 35.7328C149.987 34.8197 150.281 33.9292 150.661 33.0745L152.407 29.1466L153.227 26.96C153.833 25.3423 154.733 23.8505 155.881 22.5593L158.779 19.2996L161.679 15.5714C162.446 14.5858 163.341 13.7068 164.339 12.9577L167.469 10.611L171.746 7.61739C172.752 6.91304 173.847 6.34372 175.001 5.92399L179.635 4.23935L186.007 1.92239L189.716 1.09836C190.716 0.876066 191.738 0.763916 192.763 0.763916H195.856H198.369C199.394 0.763916 200.416 0.876066 201.416 1.09836L203.752 1.61738C204.665 1.82022 205.555 2.11369 206.41 2.49345L210.339 4.23935L214.128 5.9231C215.073 6.34321 215.956 6.89221 216.75 7.55444L217.593 8.25627C218.534 9.04027 219.255 10.0555 219.685 11.2022L219.844 11.6275C220.432 13.1955 220.341 14.9375 219.592 16.4353C219.22 17.1783 218.694 17.8404 218.056 18.3722C216.498 19.6706 214.385 20.1246 212.435 19.5675L212.103 19.4727C211.7 19.3575 211.308 19.2052 210.933 19.0177L209.106 18.104C208.384 17.7432 207.633 17.4453 206.86 17.2135L202.228 15.8241L197.67 14.5813C196.466 14.2528 195.223 14.0864 193.974 14.0864H191.545C190.178 14.0864 188.818 14.286 187.508 14.6787L185.373 15.3191C184.255 15.6545 183.184 16.1279 182.183 16.7284L177.897 19.2996L174.061 22.176C173.529 22.5748 173.026 23.0109 172.556 23.4809L169.497 26.5392C168.919 27.1179 168.391 27.7461 167.922 28.4166L165.657 31.6515C164.937 32.68 164.358 33.8005 163.936 34.9829L161.676 41.3106L159.938 48.2615L158.779 56.3708L157.314 63.6952C157.133 64.6025 157.041 65.5254 157.041 66.4507V73.1644C157.041 73.9383 156.977 74.7109 156.85 75.4743L155.484 83.6661C155.364 84.39 155.187 85.1032 154.955 85.7994L152.894 91.979C152.57 92.9515 152.14 93.8856 151.613 94.7646L148.931 99.2345L146.345 103.544C145.754 104.529 145.044 105.438 144.232 106.25L141.4 109.082L137.084 112.438C136.486 112.903 135.851 113.318 135.186 113.681L129.813 116.612L125.179 118.349L121.897 119.662C120.238 120.325 118.467 120.666 116.68 120.666H112.434H105.482H100.847H99.1088C97.5092 120.666 96.2126 121.963 96.2126 123.563V129.441C96.2126 131.296 95.8452 133.133 95.1316 134.845L93.316 139.202L89.2607 146.732L86.8965 150.278C85.4251 152.485 83.2437 154.144 80.7273 154.982C78.7642 155.637 76.6201 155.578 74.6988 154.81C73.1492 154.19 72.4065 152.422 73.0485 150.882L73.5324 149.72C74.3545 147.748 74.7777 145.632 74.7777 143.495V141.519V138.218C74.7777 136.974 74.389 135.762 73.666 134.75C72.5459 133.182 70.7375 132.251 68.8106 132.251H62.612H51.0256H45.2955C43.417 132.251 41.6322 133.072 40.4095 134.498C39.4096 135.665 38.8599 137.15 38.8599 138.687V143.435C38.8599 145.615 39.2521 147.778 40.0179 149.82L40.5179 151.153C41.3975 153.498 39.6638 156 37.159 156C36.3828 156 35.6277 155.748 35.0067 155.283L33.6885 154.294C30.5971 151.976 27.9609 149.106 25.9128 145.83L23.2183 141.519L17.7499 130.584C16.7743 128.633 16.2664 126.482 16.2664 124.3V107.725C16.2664 103.457 14.3262 99.4202 10.9932 96.7542L5.67902 92.5035C0.144514 88.0765 -1.22584 80.2203 2.48303 74.181Z" fill="#D2714C" stroke="#D2714C" stroke-width="0.351213"/>
</svg>
