<svg width="22" height="23" viewBox="0 0 22 23" fill="none" xmlns="http://www.w3.org/2000/svg">
<path d="M0 4.78176V3.58114C0 2.5339 0.168833 1.4935 0.5 0.5L2 1L5 2L21.5 5.5L21.0465 6.52048C18.7456 11.6975 18.2024 17.4853 19.5 23L13.4768 20.8742C11.8298 20.2929 10.2455 19.5473 8.74778 18.6487C6.92281 17.5537 5.23903 16.239 3.73413 14.7341L3.5 14.5L2.42985 13.1623C1.81332 12.3916 1.31373 11.5343 0.947188 10.618C0.650126 9.87531 0.442834 9.09984 0.329716 8.30801L0.172285 7.206C0.0575731 6.40301 0 5.5929 0 4.78176Z" fill="#EEBF00"/>
</svg>
